<svg xmlns="http://www.w3.org/2000/svg" width="390" height="779.015" viewBox="0 0 390 779.015">
<path id="Subtraction_1-2" d="M-654,1041.9H-944a30.006,30.006,0,0,1-11.677-2.34,29.917,29.917,0,0,1-9.536-6.381,29.665,29.665,0,0,1-6.429-9.464A29.393,29.393,0,0,1-974,1012.123V944.9a13.015,13.015,0,0,0,13-13,13.014,13.014,0,0,0-13-13V472.774a29.4,29.4,0,0,1,2.358-11.589,29.662,29.662,0,0,1,6.429-9.464,29.912,29.912,0,0,1,9.536-6.381A30.008,30.008,0,0,1-944,443l290,34.721a44.435,44.435,0,0,1,11.787,3.385,34.5,34.5,0,0,1,9.524,6.264A27.006,27.006,0,0,1-624,507.494V918.9a13.015,13.015,0,0,0-13,13,13.015,13.015,0,0,0,13,13v67.226a29.392,29.392,0,0,1-2.358,11.589,29.664,29.664,0,0,1-6.429,9.464,29.918,29.918,0,0,1-9.536,6.381A30.008,30.008,0,0,1-654,1041.9Z" transform="translate(983 -436)" fill="#fff"/>
</svg>